
		<svg width="3234.375" height="2929.6875" xmlns="http://www.w3.org/2000/svg" xmlns:xlink="http://www.w3.org/1999/xlink" version="1.1">
            <g transform="scale(11.71875) translate(10, 10)">
				<defs id="SvgjsDefs2054"/><g id="main_text" rel="mainfill" name="main_text" feature="main_text" xmlns:name="mainText_mainfill" groupName="main_text" fill="#fff" transform="translate(-2.14070451099767, 131.89587997524856) scale(2.140703490230701)"><path d="M13.8 15.540000000000003 c0 3 -2.88 4.88 -6.66 4.88 c-2.28 0 -4.64 -1.12 -6.14 -3.06 l1.56 -1.46 c0.78 0.94 2.24 2.34 4.58 2.34 c2.2 0 4.42 -0.84 4.42 -2.7 c0 -2.28 -2.26 -2.28 -4.42 -2.28 c-3.56 0 -5.5 -1.32 -5.5 -3.86 c0 -2.42 2.3 -4.68 5.5 -4.68 c2.26 0 4.22 0.64 6 2.36 l-1.36 1.6 c-1.6 -1.3 -2.74 -1.76 -4.64 -1.76 c-1.68 0 -3.08 1.16 -3.08 2.46 c0 0.9 0.64 1.72 3.18 1.72 c5.22 0 6.56 1.62 6.56 4.44 z M25.36 17.200000000000003 l1.2 1.72 c-1.14 0.98 -2.68 1.48 -4.26 1.48 c-3.14 0 -6.1 -2.04 -6.1 -5.54 c0 -3.52 3.02 -5.48 6.12 -5.48 c1.52 0 3.02 0.44 4.16 1.3 l-1.38 1.6 c-0.78 -0.54 -1.8 -0.82 -2.78 -0.82 c-2 0 -3.94 1.1 -3.94 3.44 s1.98 3.42 3.96 3.42 c1.08 0 2.22 -0.4 3.02 -1.12 z M36.120000000000005 16.64 l0.28 0 l-2.02 -3.84 l-2.46 4.74 c0.66 -0.34 2.06 -0.9 4.2 -0.9 z M33.32 10.780000000000001 l-0.68 -1.3 l2.22 0 l5.6 10.6 l-2.26 0 l-0.82 -1.56 l-1.24 0 c-2.56 0 -5.22 1 -5.56 1.44 l-0.06 0.12 l-2.16 0 z M53.800000000000004 9.720000000000002 l-4.58 10.36 l-2.66 0 l-4.5 -10.36 l2.32 0 l3.5 8.26 l3.58 -8.26 l2.34 0 z M59.040000000000006 16.360000000000003 l0 1.64 l6.5 0 l0 2.08 l-8.54 0 l0 -10.36 l8.16 0 l0 2.06 l-6.12 0 l0 2.52 c0.9 -0.52 2.04 -0.6 3.24 -0.6 l1.52 0 l0 2.06 l-1.52 0 c-1.9 0 -2.34 0.12 -3.24 0.6 z M68.14 9.720000000000002 l2.58 0 l6.26 7.2 l0 -7.2 l2.06 0 l0 10.36 l-2.06 0 l-5.76 -6.74 l0 6.74 l-2.06 0 l0 -8.82 z M93.20000000000002 14.180000000000001 l0 4.74 c-1.14 0.98 -2.68 1.48 -4.26 1.48 c-3.14 0 -6.1 -2.04 -6.1 -5.54 c0 -3.52 3.02 -5.48 6.12 -5.48 c1.52 0 3.02 0.44 4.16 1.3 l-1.38 1.6 c-0.78 -0.54 -1.8 -0.82 -2.78 -0.82 c-2 0 -3.94 1.1 -3.94 3.44 s1.98 3.42 3.96 3.42 c0.74 0 1.5 -0.18 2.18 -0.54 l0 -1.66 l-1.06 0 l-0.88 -1.94 l3.98 0 z M99.34 16.360000000000003 l0 1.64 l6.5 0 l0 2.08 l-8.54 0 l0 -10.36 l8.16 0 l0 2.06 l-6.12 0 l0 2.52 c0.9 -0.52 2.04 -0.6 3.24 -0.6 l1.52 0 l0 2.06 l-1.52 0 c-1.9 0 -2.34 0.12 -3.24 0.6 z M117.30000000000001 15.860000000000003 l0.64 1.08 c0.5 0.84 1.22 0.92 1.74 0.92 l0.72 0 l0 2.22 l-0.9 0 c-1.08 0 -2.06 -0.08 -3.02 -1.64 l-1.6 -2.6 l-0.14 0 c-1.62 0 -2.06 0.16 -2.9 0.6 l0 3.64 l-2.1 0 l0 -10.36 l6.68 0 c1.9 0 3.26 1.32 3.26 3.12 c0 1.58 -0.88 2.56 -2.38 3.02 z M114.74000000000001 13.780000000000001 l1.68 0 c0.62 0 1.16 -0.34 1.16 -1 c0 -0.92 -0.8 -1 -1.52 -1 l-4.22 0 l0 2.6 c0.8 -0.44 1.82 -0.6 2.9 -0.6 z"/></g><g id="SvgjsG2056" rel="mainfill" name="main_text" feature="main_text_2" xmlns:name="mainText_mainfill" groupName="main_text_2" fill="#fff" transform="translate(77.43115826156388, 185.89587997524856) scale(2.140703490230701)"><path d="M14.98 7.080000000000002 l-1.4 1.64 c-1.08 -1.12 -2.66 -1.8 -4.36 -1.8 c-3.32 0 -5.88 2.38 -5.88 5.74 c0 3.22 2.78 5.58 5.9 5.58 c1.94 0 3.66 -0.9 4.74 -2.34 l1.34 1.82 c-1.5 1.68 -3.7 2.7 -6.1 2.7 c-4.52 0 -8.02 -3.52 -8.02 -8.02 c0 -4.4 3.76 -7.68 8.04 -7.68 c2.24 0 4.28 0.9 5.74 2.36 z M20.76 20.080000000000002 l-2.04 0 l0 -10.36 l2.04 0 l0 10.36 z M33.68 11.780000000000001 l-3.9 0 l0 8.3 l-2.06 0 l0 -8.3 l-3.76 0 l0 -2.06 l9.72 0 l0 2.06 z M45.86000000000001 9.720000000000002 l-4.28 6.18 l0 4.18 l-2.04 0 l0 -4.18 l-4.36 -6.18 l2.6 0 l2.76 4.08 l2.84 -4.08 l2.48 0 z"/></g><g id="SvgjsG2057" rel="mainfill" name="symbol" feature="symbol" xmlns:name="symbol_mainfill" fill="#fff" transform="translate(75, 15) scale(1.1366160896819635)"><path d="M24.8,63.5"/><path d="M50.1,56.7"/><path d="M50.1,65.2"/><path d="M84.9,49.4H15.4l1,6.2h29.9c-1.7,0.6-3.2,1.5-4.4,2.7H16.8l1.1,6.6L38.4,65c-0.1,0.9-0.2,1.8-0.1,2.7l-20-0.1l1.2,7.4H41  c0.3,0.5,0.8,0.9,1.2,1.2c0.9,0.6,1.8,1.1,2.7,1.5h-25l1.1,6.6h58.3l1.1-6.6H55.2c1.4-0.7,2.7-1.6,3.7-2.7h21.9l1.1-7.1L62,67.8  c0.1-0.9,0-1.8-0.1-2.7l20.4,0.1l1.1-6.9H58.9c-0.3-0.3-0.5-0.5-0.8-0.7c-1.3-0.9-2.7-1.5-4-2h29.9L84.9,49.4z M54.4,64.9  c0,1.6-0.9,3-2.2,3.8v6h-4.1v-6c-1.3-0.7-2.2-2.1-2.2-3.8c0-2.4,1.9-4.3,4.3-4.3S54.4,62.5,54.4,64.9z"/><path d="M92.2,31.2l-8.4-12.7c-2.7-4.1-7.7-6.6-13.1-6.6H29.3c-5.4,0-10.4,2.5-13.1,6.6L7.9,31.2l8.5,12.5h-1.5  c-1.6,0-3.1,0.7-4.1,1.9c-1,1.2-1.5,2.8-1.2,4.3l5.7,35.7c0.4,2.6,2.6,4.5,5.3,4.5h59c2.6,0,4.9-1.9,5.3-4.5l5.7-35.7  c0.2-1.6-0.2-3.1-1.2-4.3c-1-1.2-2.5-1.9-4.1-1.9h-2.1L92.2,31.2z M18.3,19.8c2.3-3.4,6.5-5.5,11-5.5h41.5c4.6,0,8.8,2.1,11,5.5  l5.9,8.9H12.4L18.3,19.8z M85.4,46.7c1.4,0,2.5,1.3,2.3,2.7l-5.7,35.7c-0.2,1.1-1.1,1.9-2.3,1.9h-59c-1.1,0-2.1-0.8-2.3-1.9  c0,0-5.7-35.7-5.7-35.7c-0.2-1.4,0.9-2.7,2.3-2.7C14.9,46.7,85.3,46.7,85.4,46.7z M79.5,43.7H20.1l-7.9-12.5h75.6L79.5,43.7z"/><path d="M79.6,21.3c-1.8-2.7-5.1-4.3-8.8-4.3H29.3c-3.7,0-7,1.7-8.8,4.3L17.4,26h65.2L79.6,21.3z"/></g>
			</g>
		</svg>
    